<?xml version="1.0" standalone="no"?>
<!DOCTYPE svg PUBLIC "-//W3C//DTD SVG 20010904//EN"
 "http://www.w3.org/TR/2001/REC-SVG-20010904/DTD/svg10.dtd">
<svg version="1.0" xmlns="http://www.w3.org/2000/svg"
 width="638.000000pt" height="551.000000pt" viewBox="0 0 638.000000 551.000000"
 preserveAspectRatio="xMidYMid meet">

<g transform="translate(0.000000,551.000000) scale(0.100000,-0.100000)"
fill="#000000" stroke="none">
<path d="M3905 5462 c-12 -11 -79 -37 -255 -98 -74 -26 -139 -51 -144 -55 -16
-14 69 -225 180 -444 198 -392 432 -705 787 -1054 293 -288 597 -532 939 -754
107 -70 117 -74 131 -59 44 50 297 397 297 407 0 7 -55 45 -122 86 -299 178
-600 397 -813 588 -103 94 -301 298 -367 379 -34 42 -65 79 -68 82 -15 14
-117 159 -192 275 -109 167 -215 363 -297 550 -47 106 -55 116 -76 97z"/>
<path d="M2292 5416 c-9 -10 -39 -65 -102 -181 -15 -27 -37 -67 -48 -87 -12
-21 -30 -53 -41 -71 -91 -161 -237 -390 -343 -537 -300 -417 -658 -774 -1147
-1144 l-103 -78 168 -169 c93 -93 172 -169 177 -169 4 0 44 29 90 63 45 35
104 81 132 101 56 43 141 114 200 167 22 20 63 56 91 80 69 58 390 382 486
489 184 206 367 443 537 698 56 84 110 167 120 185 10 17 38 64 61 102 54 87
99 168 151 268 32 62 38 82 28 93 -6 8 -15 14 -20 14 -8 0 -315 133 -388 169
-30 14 -43 16 -49 7z"/>
<path d="M1420 3125 l0 -225 485 0 485 0 0 -79 c0 -95 -25 -352 -46 -476 -26
-151 -50 -233 -125 -427 -45 -116 -195 -356 -287 -460 -186 -210 -559 -461
-925 -623 -48 -21 -90 -42 -93 -47 -4 -7 49 -95 66 -108 4 -3 26 -34 50 -70
24 -36 49 -70 54 -76 6 -6 29 -37 51 -68 22 -31 43 -56 46 -56 5 0 105 53 264
140 190 104 310 181 490 316 435 325 731 780 841 1293 42 193 81 500 87 671
l2 65 745 0 c739 0 745 0 743 -20 -1 -11 -7 -96 -12 -190 -11 -164 -20 -300
-41 -605 -35 -512 -49 -648 -79 -752 -53 -185 -159 -283 -349 -323 -85 -17
-352 -20 -557 -6 -71 5 -206 11 -300 13 -195 3 -175 17 -156 -109 20 -132 32
-217 40 -275 4 -32 9 -60 12 -62 2 -2 150 -10 328 -17 326 -13 650 -4 771 22
25 5 68 14 95 20 28 6 59 14 70 19 11 4 36 14 55 21 187 70 352 265 418 495
50 173 57 238 102 942 6 83 14 221 20 305 5 83 14 222 20 307 6 85 15 229 20
320 5 91 12 207 16 258 l7 92 -1707 0 -1706 0 0 -225z"/>
</g>
</svg>
