<?xml version="1.0" standalone="no"?>
<!DOCTYPE svg PUBLIC "-//W3C//DTD SVG 20010904//EN"
 "http://www.w3.org/TR/2001/REC-SVG-20010904/DTD/svg10.dtd">
<svg version="1.0" xmlns="http://www.w3.org/2000/svg"
 width="710.000000pt" height="210.000000pt" viewBox="0 0 710.000000 210.000000"
 preserveAspectRatio="xMidYMid meet">

<g transform="translate(0.000000,210.000000) scale(0.100000,-0.100000)"
fill="#000000" stroke="none">
<path d="M5110 1771 c-154 -33 -237 -204 -184 -380 20 -67 80 -134 142 -158
60 -22 164 -22 224 0 58 22 122 91 140 149 7 23 13 79 12 123 0 121 -43 199
-135 246 -42 21 -147 32 -199 20z m145 -115 c43 -28 60 -73 60 -161 0 -125
-41 -179 -135 -178 -59 1 -82 13 -112 60 -32 52 -33 180 -3 233 39 66 127 87
190 46z"/>
<path d="M2300 1720 l0 -50 70 0 70 0 0 -225 0 -225 65 0 65 0 0 225 0 225 70
0 70 0 0 50 0 50 -205 0 -205 0 0 -50z"/>
<path d="M3880 1494 l0 -276 153 4 c170 5 206 15 245 72 26 38 30 112 8 155
-8 15 -31 36 -50 46 -20 11 -36 20 -36 22 0 1 14 15 30 31 26 27 30 38 30 87
0 49 -4 60 -28 85 -40 39 -88 50 -229 50 l-123 0 0 -276z m244 160 c22 -22 20
-60 -5 -85 -16 -16 -30 -19 -67 -17 l-47 3 -3 58 -3 57 55 0 c36 0 60 -5 70
-16z m31 -219 c30 -29 32 -55 6 -86 -17 -21 -28 -24 -88 -24 l-68 0 -3 54 c-5
78 -2 81 68 81 51 0 65 -4 85 -25z"/>
<path d="M4410 1496 l0 -276 60 0 60 0 0 94 0 93 84 6 c92 6 144 27 186 72 21
22 25 38 28 98 3 62 1 77 -20 106 -42 63 -84 76 -250 79 l-148 3 0 -275z m267
159 c46 -32 36 -113 -16 -135 -16 -6 -50 -10 -77 -8 l-49 3 -3 64 c-2 35 -1
70 2 77 7 20 115 19 143 -1z"/>
<path d="M3528 1641 c-30 -26 -38 -28 -86 -24 -116 12 -202 -45 -202 -132 0
-35 6 -52 30 -78 l29 -34 -29 -22 c-35 -26 -39 -62 -10 -91 19 -19 19 -19 -10
-49 -35 -35 -38 -59 -10 -94 29 -36 81 -51 181 -51 68 1 96 5 132 23 55 27 82
74 69 123 -15 60 -80 87 -208 88 -52 0 -75 4 -84 15 -21 25 3 39 59 36 146 -6
235 85 183 189 -19 39 -19 41 -2 50 10 6 28 10 39 10 17 0 21 6 21 35 0 33 -2
35 -35 35 -24 0 -44 -9 -67 -29z m-73 -106 c47 -46 19 -118 -45 -118 -41 0
-60 24 -60 74 0 65 60 90 105 44z m46 -341 c19 -23 0 -47 -44 -58 -71 -18
-149 21 -118 58 19 23 143 23 162 0z"/>
<path d="M2853 1605 c-31 -13 -63 -59 -63 -90 0 -11 11 -15 49 -15 41 0 51 4
65 25 23 35 88 36 112 0 30 -46 17 -59 -66 -67 -92 -10 -131 -22 -157 -51 -46
-49 -34 -136 23 -173 38 -26 122 -23 169 5 44 26 45 26 45 1 0 -18 7 -20 55
-20 l55 0 0 151 c0 172 -10 207 -65 233 -42 20 -177 21 -222 1z m175 -233 c5
-34 -48 -82 -91 -82 -41 0 -60 19 -55 57 4 36 39 54 98 51 38 -3 45 -6 48 -26z"/>
<path d="M2300 688 c0 -2 11 -37 23 -78 19 -59 28 -76 44 -78 18 -3 24 7 43
65 13 37 25 74 28 81 2 6 -3 12 -12 12 -10 0 -19 -15 -27 -42 -22 -86 -30 -88
-51 -20 -12 39 -24 62 -33 62 -8 0 -15 -1 -15 -2z"/>
<path d="M2500 610 c0 -64 3 -80 15 -80 12 0 15 16 15 80 0 64 -3 80 -15 80
-12 0 -15 -16 -15 -80z"/>
<path d="M2618 679 c-37 -21 -18 -61 34 -74 39 -10 52 -29 32 -45 -13 -11 -20
-11 -44 3 -34 21 -40 21 -40 2 0 -33 86 -48 114 -19 30 29 18 55 -36 77 -22 9
-38 23 -38 32 0 14 7 16 42 10 39 -7 41 -6 29 9 -15 18 -67 21 -93 5z"/>
<path d="M2790 610 c0 -64 3 -80 15 -80 12 0 15 16 15 80 0 64 -3 80 -15 80
-12 0 -15 -16 -15 -80z"/>
<path d="M2900 610 l0 -80 41 0 c22 0 49 5 60 10 20 11 26 54 8 66 -6 3 -8 17
-4 31 9 36 -11 53 -61 53 l-44 0 0 -80z m77 44 c7 -18 -14 -35 -34 -27 -7 3
-13 14 -13 24 0 24 38 26 47 3z m13 -75 c0 -14 -7 -19 -30 -19 -23 0 -30 5
-30 19 0 11 6 21 13 24 22 7 47 -5 47 -24z"/>
<path d="M3090 610 c0 -64 3 -80 15 -80 12 0 15 16 15 80 0 64 -3 80 -15 80
-12 0 -15 -16 -15 -80z"/>
<path d="M3200 610 l0 -80 51 0 c57 0 66 23 11 28 l-32 3 0 65 c0 50 -3 64
-15 64 -12 0 -15 -16 -15 -80z"/>
<path d="M3360 610 c0 -64 3 -80 15 -80 12 0 15 16 15 80 0 64 -3 80 -15 80
-12 0 -15 -16 -15 -80z"/>
<path d="M3460 610 l0 -80 50 0 c62 0 100 31 100 80 0 49 -38 80 -100 80 l-50
0 0 -80z m100 40 c36 -36 18 -90 -30 -90 -30 0 -30 1 -30 55 0 48 2 55 20 55
11 0 29 -9 40 -20z"/>
<path d="M3709 663 c-40 -103 -48 -133 -33 -133 8 0 17 7 20 15 4 9 19 15 39
15 20 0 35 -6 39 -15 3 -8 12 -15 20 -15 13 0 10 14 -13 78 -31 85 -54 102
-72 55z m41 -49 c0 -17 -5 -24 -20 -24 -23 0 -23 0 -10 35 12 31 30 24 30 -11z"/>
<path d="M3870 610 l0 -80 45 0 c82 0 122 72 74 134 -17 22 -28 26 -70 26
l-49 0 0 -80z m99 28 c22 -39 2 -78 -39 -78 -29 0 -30 1 -30 48 0 27 3 52 7
56 14 14 48 0 62 -26z"/>
<path d="M4080 610 l0 -80 56 0 c64 0 73 23 11 28 -60 5 -47 52 14 52 32 0 21
19 -13 22 -48 4 -44 32 5 36 57 5 44 22 -18 22 l-55 0 0 -80z"/>
<path d="M4340 610 c0 -63 3 -80 14 -80 10 0 16 13 18 38 3 32 7 37 31 40 37
4 35 22 -3 22 -23 0 -30 4 -30 20 0 16 7 20 35 20 19 0 35 5 35 10 0 6 -22 10
-50 10 l-50 0 0 -80z"/>
<path d="M4510 610 c0 -64 3 -80 15 -80 12 0 15 16 15 80 0 64 -3 80 -15 80
-12 0 -15 -16 -15 -80z"/>
<path d="M4610 610 c0 -63 3 -80 14 -80 11 0 16 15 18 53 l3 52 38 -52 c55
-76 67 -71 67 27 0 63 -3 80 -14 80 -11 0 -16 -15 -18 -52 l-3 -53 -35 52
c-20 30 -43 53 -52 53 -16 0 -18 -10 -18 -80z"/>
<path d="M4859 663 c-6 -16 -19 -52 -30 -80 -18 -52 -18 -53 2 -53 10 0 19 7
19 15 0 10 10 15 34 15 21 0 36 -6 40 -15 3 -8 13 -15 22 -15 11 0 14 5 9 18
-3 9 -16 45 -28 80 -25 69 -50 82 -68 35z m46 -50 c5 -19 2 -23 -14 -23 -15 0
-21 6 -21 23 0 45 21 44 35 0z"/>
<path d="M5020 610 c0 -63 3 -80 14 -80 11 0 16 15 18 53 l3 52 35 -52 c20
-30 43 -53 53 -53 15 0 17 10 17 80 0 63 -3 80 -14 80 -11 0 -16 -15 -18 -52
l-3 -53 -35 52 c-20 30 -43 53 -52 53 -16 0 -18 -10 -18 -80z"/>
<path d="M5251 664 c-43 -55 -8 -134 59 -134 37 0 78 36 60 54 -8 8 -15 7 -24
-6 -20 -28 -64 -23 -78 8 -23 50 38 110 72 69 14 -17 40 -20 40 -6 0 18 -44
41 -76 41 -23 0 -39 -8 -53 -26z"/>
<path d="M5450 610 l0 -80 51 0 c58 0 66 23 10 28 -27 3 -32 7 -29 25 2 17 11
23 36 25 40 4 32 22 -9 22 -44 0 -36 34 9 38 51 5 37 22 -18 22 l-50 0 0 -80z"/>
<path d="M5630 610 c0 -64 3 -80 15 -80 12 0 15 16 15 80 0 64 -3 80 -15 80
-12 0 -15 -16 -15 -80z"/>
<path d="M5730 610 c0 -64 3 -80 15 -80 10 0 15 10 15 30 0 25 4 30 26 30 19
0 28 -7 35 -30 6 -16 17 -30 25 -30 18 0 18 18 -1 54 -11 20 -12 33 -5 40 15
15 12 53 -6 60 -9 3 -36 6 -60 6 l-44 0 0 -80z m85 35 c0 -14 -8 -21 -27 -23
-22 -3 -28 1 -28 16 0 25 10 33 35 30 12 -2 20 -10 20 -23z"/>
<path d="M5938 610 c-25 -76 -25 -80 -7 -80 10 0 19 7 19 15 0 10 10 15 34 15
21 0 36 -6 40 -15 3 -8 12 -15 20 -15 25 0 -33 154 -59 158 -17 2 -25 -9 -47
-78z m62 4 c0 -15 -6 -24 -15 -24 -15 0 -21 40 -9 53 12 11 24 -3 24 -29z"/>
</g>
</svg>
